<svg xmlns="http://www.w3.org/2000/svg" viewBox="0 0 36 45" x="0px" y="0px"><title>Монтажная область 84</title><g data-name="Слой 3"><path d="M34.98884-.005,12.16883-.025a.9903.9903,0,0,0-1,1v24a5.499,5.499,0,0,0-2.67-.96,7.75522,7.75522,0,0,0-4.89,1.23,7.83393,7.83393,0,0,0-3.23,3.87006,5.082,5.082,0,0,0,.36,4.55,5.08871,5.08871,0,0,0,3.94,2.3c.22.02.45.03.67.03a7.95805,7.95805,0,0,0,4.22-1.27,7.74983,7.74983,0,0,0,3.23-3.87,5.87465,5.87465,0,0,0,.36-1.75c0-.01.00995-.02.00995-.03V6.855h20.82v18.15a6.95967,6.95967,0,0,0-7.56.27,7.801,7.801,0,0,0-3.23,3.87,4.91249,4.91249,0,0,0,4.31,6.84,4.92859,4.92859,0,0,0,.67.04,7.95051,7.95051,0,0,0,4.21-1.27,7.85471,7.85471,0,0,0,3.24-3.87,5.79648,5.79648,0,0,0,.35-2.01c.01-.00995.01-.00995.01-.02V.995A1.00292,1.00292,0,0,0,34.98884-.005Z"/></g><text x="0" y="51" fill="#000000" font-size="5px" font-weight="bold" font-family="'Helvetica Neue', Helvetica, Arial-Unicode, Arial, Sans-serif">Created by Vadim Solomakhin</text><text x="0" y="56" fill="#000000" font-size="5px" font-weight="bold" font-family="'Helvetica Neue', Helvetica, Arial-Unicode, Arial, Sans-serif">from the Noun Project</text></svg>